<svg xmlns="http://www.w3.org/2000/svg" viewBox="0.0000 4.7423 181.0000 48.0000" width="181.00" height="48.00" fill="none" overflow="visible" aria-hidden="true">
<g id="Schuch-2024-logo" clip-path="url(#clip0_0_368)">
<path id="Vector" d="M180.995 47.2413H172.662C172.662 46.7712 172.662 46.3267 172.662 45.8796C172.662 40.1316 172.679 34.3835 172.647 28.6355C172.642 27.537 172.556 26.4103 172.301 25.3476C171.361 21.3955 168.286 19.3032 163.973 19.5817C159.993 19.8397 157.293 22.3637 156.807 26.3235C156.698 27.2074 156.663 28.1067 156.663 28.9982C156.651 34.5343 156.656 40.0677 156.656 45.6037C156.656 46.1044 156.656 46.6077 156.656 47.1876H148.365V0H156.646V13.946C159.007 13.1413 161.236 12.1373 163.57 11.6545C166.39 11.0695 169.269 11.353 172.009 12.38C177.297 14.3624 179.876 18.4908 180.715 23.917C180.929 25.2965 180.977 26.7144 180.982 28.1143C181.01 33.9901 180.995 39.8659 180.995 45.7417V47.2438V47.2413Z" fill="#564B50"/>
<path id="Vector_2" d="M70.9889 0H79.2214V14.3497C79.5667 14.1989 79.7532 14.153 79.9019 14.0508C84.4441 10.9979 89.372 10.6837 94.3881 12.3315C99.9058 14.1427 102.517 18.4729 103.339 24.06C103.543 25.4421 103.591 26.8574 103.599 28.2574C103.626 34.0897 103.609 39.9221 103.609 45.7544C103.609 46.2117 103.609 46.6665 103.609 47.1953H95.2754C95.2754 46.7431 95.2754 46.296 95.2754 45.8464C95.2754 40.0984 95.2905 34.3503 95.2602 28.6048C95.2552 27.5472 95.172 26.4665 94.9376 25.4421C94.0327 21.4747 90.955 19.3211 86.6774 19.5766C82.6066 19.8193 79.912 22.3177 79.4155 26.3567C79.302 27.284 79.2567 28.2242 79.2541 29.1592C79.239 34.6518 79.2466 40.1443 79.2466 45.6344V47.2004H70.9915V0H70.9889Z" fill="#564B50"/>
<path id="Vector_3" d="M109.714 12.145H117.964V13.5807C117.964 19.4539 117.964 25.3272 117.966 31.2004C117.966 31.8799 117.956 32.5697 118.054 33.239C118.904 39.1659 125.543 41.9837 130.38 38.4659C132.699 36.7798 133.279 34.2788 133.294 31.5964C133.33 25.5954 133.307 19.5944 133.307 13.596C133.307 13.1388 133.307 12.684 133.307 12.1501H141.58C141.605 12.5742 141.65 12.9804 141.65 13.384C141.655 19.5536 141.718 25.7257 141.615 31.8953C141.582 33.87 141.358 35.9214 140.778 37.7966C138.938 43.7413 134.625 46.807 128.709 47.742C125.334 48.2733 121.999 48.0179 118.796 46.7584C113.205 44.5614 110.097 40.221 109.802 34.335C109.434 26.9979 109.714 19.6251 109.714 12.145Z" fill="#564B50"/>
<path id="Vector_4" d="M63.3892 37.1656C64.5134 39.6002 65.5872 41.9326 66.6988 44.3442C64.2462 46.0917 61.597 47.0727 58.7689 47.5938C54.3124 48.4139 49.9718 47.9693 45.8153 46.1581C39.3296 43.33 35.5587 36.9995 35.71 29.3482C35.9091 19.2955 42.7174 12.145 52.6714 11.4935C56.8632 11.2176 60.8786 11.818 64.6445 13.78C65.1234 14.0303 65.5847 14.319 66.1821 14.6639C65.0982 17.0679 64.042 19.4054 62.933 21.8605C60.6014 20.4145 58.1639 19.5893 55.5046 19.5663C51.1641 19.528 47.5142 20.9229 45.4397 25.0308C41.9763 31.8799 46.6572 39.5312 54.4006 39.8301C57.6472 39.9553 60.6215 39.1097 63.3917 37.1656H63.3892Z" fill="#564B50"/>
<path id="Vector_5" d="M16.2052 29.6522C17.1958 27.4092 18.1739 25.1611 19.2023 22.936C19.3031 22.7188 19.7392 22.4966 19.9812 22.5323C25.3552 23.3141 29.973 26.3184 31.498 31.484C32.9373 36.3634 31.0871 41.529 26.7567 44.5895C22.7135 47.4482 18.1184 48.1891 13.3191 47.9259C9.04912 47.6934 4.9077 46.8887 1.12169 44.73C0.761235 44.5231 0.415907 44.288 0 44.0224C1.05867 41.695 2.08962 39.4265 3.04746 37.3163C5.50509 38.2156 7.84173 39.2706 10.2842 39.9144C13.5712 40.7779 16.9362 40.9133 20.1878 39.6027C22.8118 38.5451 24.0192 36.4298 23.4823 34.0156C23.1395 32.4675 22.1489 31.4175 20.76 30.8964C19.2779 30.3395 17.705 30.0354 16.1725 29.619L16.2027 29.6497L16.2052 29.6522Z" fill="#564B50"/>
<path id="Vector_6" d="M16.175 29.6241C15.1642 31.7701 14.1736 33.9262 13.1225 36.0492C12.9561 36.3864 12.5074 36.8003 12.1848 36.8054C7.57706 36.8565 2.18288 32.8022 0.776359 28.2957C-0.723425 23.4954 0.957845 18.2507 5.01608 15.0829C7.72578 12.9676 10.8564 11.8972 14.2064 11.5855C19.3283 11.1103 24.3494 11.611 29.116 13.7647C29.6453 14.0022 30.1494 14.2935 30.7519 14.6051C29.7008 16.9171 28.69 19.1423 27.7952 21.1119C24.9746 20.389 22.3052 19.5306 19.5728 19.0503C16.8656 18.5751 14.1156 18.754 11.5698 20.016C9.17011 21.2039 7.99297 23.4239 8.86511 25.6209C9.28102 26.6709 10.1834 27.8154 11.1614 28.2804C12.7116 29.0187 14.5114 29.2205 16.2078 29.6522L16.1775 29.6241H16.175Z" fill="#564B50"/>
<path id="Vector_7" d="M7.92491 32.5058L13.4502 35.339L12.5679 37.1094C11.9327 36.9663 11.2975 36.8207 10.6623 36.6776C9.74986 35.2879 8.83738 33.8981 7.92743 32.5084L7.92491 32.5058Z" fill="#564B50"/>
<path id="Vector_8" d="M23.0185 23.2425C22.7211 23.1455 22.4211 23.0458 22.1187 22.9411C21.2012 22.6217 20.3315 22.2794 19.5073 21.9294L18.8091 23.7816C19.3409 24.1622 19.8728 24.5429 20.4071 24.921L23.0211 23.2451L23.0185 23.2425Z" fill="#564B50"/>
</g>
<defs>
<clipPath id="clip0_0_368">
<rect width="181" height="48" fill="#564B50"/>
</clipPath>
</defs>
</svg>
