<svg xmlns="http://www.w3.org/2000/svg" viewBox="0 0 178 22" fill="none" aria-hidden="true" focusable="false">
  <g transform="translate(1.4215 0.0000) scale(1.016040)">
<g transform="translate(0.0000,0)"><g>
<path d="M12.0928 0.177426C11.0981 0.177426 10.0661 0.298263 9.0251 0.535526C7.98415 0.773671 6.91917 1.16705 5.85953 1.70508C4.799 2.24488 3.83901 2.91786 3.00713 3.7055C2.16903 4.5002 1.4804 5.51364 0.960813 6.71847C0.441225 7.92243 0.177872 9.26839 0.177872 10.7193C0.177872 12.9914 0.717923 14.9821 1.78379 16.635C2.84966 18.2888 4.24649 19.5236 5.93515 20.3051C7.61314 21.083 9.49219 21.4764 11.5198 21.4764C14.3375 21.4764 16.8678 21.0486 19.0405 20.2054H19.2887V13.9413L19.1081 13.8963L18.9987 13.8699L18.8617 13.8364L18.7656 13.9387L13.3873 19.6727C12.7156 19.82 12.1978 19.8941 11.8472 19.8941C10.7556 19.8941 9.79558 19.6215 8.99396 19.0826C8.18789 18.541 7.55887 17.8046 7.12558 16.8926C6.68162 15.9594 6.35243 14.9503 6.14868 13.8928C5.94405 12.8317 5.83907 11.6913 5.83907 10.5023C5.83907 7.89597 6.41648 5.75795 7.55531 4.14739C8.69146 2.54035 10.1043 1.75977 11.8748 1.75977C12.3873 1.75977 12.8838 1.84003 13.35 1.99791L18.7113 7.68869L18.7816 7.76366H19.2336V1.50134L19.0868 1.44048C17.0654 0.602559 14.7121 0.177426 12.0928 0.177426ZM12.0928 0.414689C14.6934 0.414689 16.9942 0.829238 18.9951 1.65833V7.52728H18.8857L13.4843 1.79328C12.9745 1.61335 12.438 1.52339 11.8748 1.52339C10.0376 1.52339 8.53309 2.35248 7.35957 4.01156C6.18605 5.67064 5.59973 7.83423 5.59973 10.5023C5.59973 11.7107 5.70383 12.8556 5.9138 13.9369C6.12288 15.0183 6.45474 16.0379 6.90938 16.9931C7.36402 17.9492 8.01439 18.7104 8.8605 19.2784C9.70572 19.8464 10.7013 20.1304 11.8472 20.1304C12.2289 20.1304 12.7841 20.0493 13.5119 19.887L18.9409 14.0992L19.0503 14.1265V19.9681H18.996C16.8314 20.8158 14.3402 21.2391 11.5207 21.2391C9.51978 21.2391 7.69232 20.8563 6.03747 20.0899C4.38262 19.3234 3.03116 18.1291 1.98575 16.5062C0.93946 14.8833 0.418092 12.9543 0.418092 10.7184C0.418092 9.29485 0.671658 7.99211 1.18146 6.8102C1.69037 5.63006 2.35498 4.6519 3.17262 3.87573C3.99115 3.10043 4.92356 2.44686 5.96896 1.915C7.01526 1.38315 8.05176 1.00035 9.07937 0.765732C10.107 0.531998 11.1123 0.413807 12.0937 0.413807" fill="currentColor"/>
<path d="M11.5199 21.6527C9.46557 21.6527 7.5616 21.2531 5.86049 20.4646C4.1398 19.6681 2.71805 18.4112 1.63439 16.7292C0.549838 15.0472 0 13.0256 0 10.7183C0 9.24355 0.267801 7.87378 0.797176 6.64777C1.32566 5.42177 2.02764 4.38804 2.88442 3.57658C3.72964 2.77659 4.70298 2.09391 5.77863 1.54706C6.85073 1.00197 7.92905 0.604182 8.98513 0.362509C10.0412 0.122601 11.0866 0 12.0929 0C14.7362 0 17.1126 0.429543 19.1562 1.27628L19.4125 1.383V7.93993H18.7052L13.2513 2.15036C12.8153 2.00836 12.3527 1.93603 11.8749 1.93603C10.1667 1.93603 8.80185 2.6928 7.70129 4.24868C6.58382 5.82838 6.01708 7.93287 6.01708 10.5022C6.01708 11.6788 6.12028 12.8087 6.32313 13.8591C6.5251 14.9017 6.84895 15.8975 7.28669 16.8166C7.70663 17.6986 8.31429 18.4121 9.09457 18.936C9.86594 19.4547 10.7921 19.7166 11.8482 19.7166C12.1756 19.7166 12.6632 19.6478 13.2958 19.5111L18.8039 13.6395L19.4676 13.8036V20.3817H19.0744C16.8875 21.2249 14.3465 21.6527 11.5208 21.6527H11.5199ZM12.0929 0.590952C11.1311 0.590952 10.1302 0.707379 9.11859 0.938467C8.11055 1.16867 7.0776 1.55059 6.04999 2.07274C5.02505 2.59402 4.09798 3.24406 3.29547 4.00436C2.49829 4.75937 1.84169 5.72783 1.34434 6.88062C0.847889 8.03254 0.595213 9.32381 0.595213 10.7192C0.595213 12.911 1.11302 14.8267 2.13529 16.4117C3.15845 17.9985 4.49657 19.1821 6.11227 19.9301C7.7351 20.6816 9.55454 21.0635 11.5199 21.0635C14.278 21.0635 16.7505 20.6472 18.8715 19.8269V14.4316L13.6036 20.0474L13.5502 20.0597C12.8011 20.2264 12.2441 20.3076 11.8473 20.3076C10.6711 20.3076 9.63284 20.0103 8.76093 19.4256C7.89168 18.8426 7.21462 18.0496 6.74841 17.0697C6.28933 16.1048 5.94946 15.0622 5.7386 13.972C5.52863 12.8854 5.42186 11.7185 5.42186 10.504C5.42186 7.81203 6.02508 5.59376 7.21373 3.91175C8.41661 2.21122 9.98427 1.34861 11.874 1.34861C12.4541 1.34861 13.0155 1.44298 13.5431 1.62909L13.584 1.6432L13.6134 1.67495L18.8164 7.19815V1.77638C16.8706 0.989624 14.609 0.590952 12.092 0.590952H12.0929Z" fill="currentColor"/>
</g></g>
<g transform="translate(19.4676,0)"><g>
<path d="M21.3621 0.176406H14.7738V0.692387L14.8672 0.76383L17.2846 2.61342V13.4508C17.2846 14.5189 17.1556 15.4547 16.9002 16.2309C16.6475 16.9991 16.3468 17.5866 16.0061 17.9747C15.6671 18.361 15.2356 18.6732 14.7249 18.9017C14.2009 19.1354 13.74 19.2836 13.3539 19.3435C12.9606 19.4044 12.5184 19.4353 12.0407 19.4353C10.5709 19.4353 9.44093 19.0243 8.68291 18.2128C7.91954 17.3969 7.53252 15.8587 7.53252 13.6413V2.57814L9.6856 0.755892L9.76923 0.684449V0.176406H0.179993V0.675629L0.252059 0.745308L2.14357 2.56932V13.3952C2.14357 18.5771 5.12408 21.2046 11.0033 21.2046C13.6928 21.2046 15.7409 20.5449 17.0897 19.2439C18.4412 17.942 19.1263 16.0827 19.1263 13.7189V2.6046L21.2811 0.75501L21.3639 0.683567V0.176406H21.3621ZM21.1236 0.413669V0.575961L18.8869 2.49611V13.7198C18.8869 16.028 18.2321 17.8132 16.9225 19.0754C15.6128 20.3376 13.6395 20.9682 11.0024 20.9682C5.25487 20.9682 2.38201 18.4448 2.38201 13.3961V2.46877L0.418435 0.575961V0.413669H9.5299V0.575961L7.29319 2.46877V13.6386C7.29319 15.9284 7.698 17.5063 8.50674 18.3716C9.31548 19.2368 10.4935 19.6699 12.0398 19.6699C12.5309 19.6699 12.9802 19.639 13.3894 19.5755C13.7987 19.512 14.2765 19.3585 14.8219 19.1151C15.3673 18.8717 15.8219 18.5427 16.1858 18.1281C16.5497 17.7136 16.8637 17.105 17.1271 16.3032C17.3904 15.5006 17.523 14.5498 17.523 13.4499V2.49611L15.0132 0.575961V0.413669H21.1236Z" fill="currentColor"/>
<path d="M11.0021 21.3819C8.03137 21.3819 5.75995 20.7071 4.24923 19.3762C2.73317 18.0399 1.96447 16.028 1.96447 13.3961V2.64429L0 0.750597V0H9.94513V0.765592L7.70841 2.65928V13.6386C7.70841 15.8102 8.07941 17.3087 8.81075 18.0902C9.53319 18.8637 10.6195 19.2562 12.0377 19.2562C12.5048 19.2562 12.9372 19.2262 13.3242 19.1663C13.6952 19.1089 14.141 18.9652 14.6499 18.7376C15.1374 18.5197 15.5476 18.2234 15.8697 17.8565C16.1953 17.4851 16.4845 16.9198 16.7291 16.1736C16.9782 15.415 17.1046 14.4986 17.1046 13.4481V2.69898L14.5947 0.778822V0H21.5389V0.763828L19.3022 2.68398V13.7189C19.3022 16.1321 18.5984 18.0337 17.2113 19.37C15.8279 20.7036 13.7379 21.3801 11.0012 21.3801L11.0021 21.3819ZM0.686852 0.59007L2.55879 2.39468V13.3961C2.55879 15.856 3.26344 17.7224 4.65405 18.944C6.05089 20.1709 8.18618 20.7927 11.0012 20.7927C13.5778 20.7927 15.528 20.1726 16.7976 18.9502C18.0655 17.7286 18.7078 15.9689 18.7078 13.7216V2.41585L20.8342 0.59007H15.3216L17.6998 2.40967V13.4499C17.6998 14.5621 17.5637 15.5403 17.295 16.3579C17.0254 17.1791 16.6971 17.8141 16.319 18.2445C15.94 18.6767 15.4604 19.0242 14.8937 19.2765C14.3358 19.5252 13.8385 19.6849 13.4159 19.7501C13.0004 19.8145 12.5368 19.8463 12.0386 19.8463C10.4478 19.8463 9.21468 19.3903 8.3748 18.4915C7.53758 17.5963 7.11319 15.9636 7.11319 13.6386V2.38762L9.23781 0.59007H0.685963H0.686852Z" fill="currentColor"/>
</g></g>
<g transform="translate(41.0065,0)"><g>
<path d="M0.41642 20.5352L2.38 18.6415V2.46877L0.41642 0.575964V0.413673H9.39176V0.575964L7.29117 2.46877V19.4538H12.7744L16.9213 14.1793H17.085V20.6974H0.41642V20.5352ZM9.39176 0.17641H0.177089V0.675632L0.250046 0.745312L2.14156 2.56932V18.5427L0.250046 20.3658L0.177089 20.4355V20.9347H17.3235V13.9429H16.8048L16.7327 14.0347L12.6579 19.2174H7.5305V2.57374L9.55281 0.751486L9.63109 0.680042V0.17641H9.39176Z" fill="currentColor"/>
<path d="M17.5023 21.1111H0V20.3605L0.127227 20.2388L1.96447 18.4677V2.64341L0 0.750597V0H9.80989V0.757654L7.70929 2.65135V19.0401H12.5724L16.7193 13.7657H17.5023V21.1102V21.1111ZM0.685962 20.521H16.9071V14.4845L12.8616 19.6293H7.11408V2.39027L9.11236 0.589188H0.686852L2.55879 2.3938V18.7155L0.686852 20.5202L0.685962 20.521Z" fill="currentColor"/>
</g></g>
<g transform="translate(58.5089,0)"><g>
<path d="M17.6304 2.63106L15.3385 0.575961V0.41367H21.4775V0.575961L19.0219 2.60372L12.5564 20.6974H9.03675L2.38086 2.33382L0.417289 0.575961V0.41367H9.33747V0.575961L7.37389 2.33382L12.503 17.3175L17.6322 2.63195L17.6304 2.63106ZM21.4775 0.176407H15.1001V0.68004L15.1784 0.750601L17.3528 2.70074L12.503 16.5864L7.64881 2.40438L9.49584 0.750601L9.57502 0.679157V0.175525H0.176177V0.679157L0.254472 0.750601L2.17357 2.46877L8.80987 20.7768L8.86682 20.9338H12.7228L12.7797 20.7759L19.2239 2.74396L21.6287 0.756775L21.7142 0.685332V0.175525H21.4757L21.4775 0.176407Z" fill="currentColor"/>
<path d="M12.8509 21.1111H8.74402L8.64526 20.8368L2.02408 2.57108L0 0.758536V0H9.75472V0.758536L7.85609 2.45818L12.5057 16.043L17.1473 2.75366L14.923 0.758536V0H21.8947V0.768238L19.3778 2.84804L12.8518 21.1102L12.8509 21.1111ZM9.16218 20.521H12.431L18.8706 2.49964L21.183 0.59007H15.6197L17.8368 2.57902L12.4995 17.8618L7.16657 2.2809L9.05542 0.59007H0.696635L2.5321 2.23239L2.54723 2.27384L9.16129 20.521H9.16218Z" fill="currentColor"/>
</g></g>
<g transform="translate(80.4036,0)"><g>
<path d="M0.41602 20.5351L2.38049 18.6415V2.46877L0.41602 0.575961V0.413669H16.84V6.55252H16.7305L12.4475 1.65731H7.29077V9.71631H12.4475L14.9574 7.36397H15.0668V13.584H14.9574L12.4475 10.96H7.29077V19.4529H12.7198L17.0037 14.5577H17.1122V20.6966H0.41602V20.5343V20.5351ZM16.84 0.176406H0.17758V0.675629L0.249646 0.745308L2.14205 2.56932V18.5427L0.249646 20.3658L0.17758 20.4355V20.9347H17.3516V14.3222H16.8951L16.824 14.4034L12.6121 19.2174H7.53099V11.1981H12.3452L14.7839 13.748L14.8542 13.8221H15.3043V7.12759H14.8622L14.7928 7.19198L12.3514 9.47993H7.52921V1.89458H12.3372L16.549 6.70775L16.6211 6.7889H17.0784V0.176406H16.84Z" fill="currentColor"/>
<path d="M17.5299 21.1111H0V20.3605L1.96536 18.4677V2.64341L0 0.749715V0H17.2567V6.9653H16.5405L16.416 6.82329L12.2575 2.07098H7.70841V9.30441H12.2815L14.7922 6.95119H15.4835V13.9985H14.7789L14.6552 13.8689L12.269 11.3745H7.7093V19.041H12.5315L16.8154 14.1458H17.5308V21.1111H17.5299ZM0.68685 20.521H16.9355V14.907L12.802 19.6302H7.11408V10.7844H12.5253L14.8901 13.2567V7.67179L12.5199 9.8936H7.11497V1.48091H12.5306L16.6642 6.205V0.59007H0.688631L2.56146 2.39468V18.7164L0.688631 20.521H0.68685Z" fill="currentColor"/>
</g></g>
<g transform="translate(97.9344,0)"><g>
<path d="M7.52964 1.81343H9.03679C10.3455 1.81343 11.3207 2.13096 11.9346 2.75631C12.5502 3.38431 12.8625 4.51594 12.8625 6.12121C12.8625 7.72648 12.4595 8.94631 11.6641 9.52756C10.8465 10.1247 9.60443 10.4281 7.97271 10.4281H7.52964V1.81343ZM9.39089 0.176406H0.177112V0.675629L0.249172 0.745308L2.14069 2.56932V18.5418L0.249172 20.3649L0.177112 20.4346V20.9338H9.49321V20.4346L9.42114 20.3649L7.52964 18.5418V12.0634H8.68447L13.0058 19.1169L12.0636 20.3958L12.0173 20.4584V20.9347H21.1973V20.4178L21.103 20.3464L18.6803 18.5321L13.8261 11.274C15.1402 10.8003 16.2078 10.1362 17.0005 9.29824C17.8671 8.38182 18.3066 7.27665 18.3066 6.01184C18.3066 4.11285 17.4792 2.64341 15.8466 1.64497C14.2514 0.670336 12.0796 0.176406 9.39178 0.176406M7.2903 10.6645H7.97182C9.66315 10.6645 10.9408 10.3487 11.8047 9.7172C12.6686 9.08655 13.101 7.88701 13.101 6.12033C13.101 4.35364 12.7691 3.267 12.1045 2.59049C11.4408 1.91398 10.4176 1.57617 9.0359 1.57617H7.2903V10.6636V10.6645ZM9.39089 0.413669C12.0458 0.413669 14.1562 0.891723 15.7203 1.84695C17.2844 2.80306 18.0673 4.19135 18.0673 6.01184C18.0673 7.2202 17.6527 8.26187 16.8253 9.13595C15.9978 10.01 14.875 10.6821 13.4569 11.1505L18.5033 18.697L20.958 20.536V20.6983H12.2558V20.536L13.2922 19.1292L8.81793 11.827H7.2903V18.6432L9.25388 20.536V20.6983H0.414656V20.536L2.37913 18.6432V2.46877L0.414656 0.575961V0.413669H9.39H9.39089Z" fill="currentColor"/>
<path d="M21.3752 21.1111H11.8394V20.4011L12.7922 19.108L8.58483 12.2398H7.70846V18.4677L9.67294 20.3614V21.1111H0.000949018V20.3614L0.1264 20.2397L1.96453 18.4677V2.64429L6.93044e-05 0.7506V2.31343e-06H9.39179C12.1125 2.31343e-06 14.3154 0.502753 15.94 1.49502C17.6287 2.52698 18.4846 4.0467 18.4846 6.01184C18.4846 7.32252 18.029 8.46826 17.1304 9.41819C16.3626 10.2305 15.343 10.8832 14.0983 11.3604L18.812 18.4095L21.3761 20.3296V21.1102L21.3752 21.1111ZM12.4862 20.5219H20.6439L18.3707 18.8196L18.3538 18.7949L13.1784 11.057L13.399 10.9838C14.7825 10.5269 15.8911 9.86449 16.6945 9.01599C17.4863 8.17896 17.8885 7.16816 17.8885 6.01272C17.8885 4.24163 17.1482 2.9283 15.626 1.99777C14.0974 1.06372 11.9995 0.590954 9.39001 0.590954H0.684247L2.55708 2.39556V18.7182L0.684247 20.5228H8.98431L7.11237 18.7182V11.6515H8.91758L13.5058 19.1389L12.4862 20.5228V20.5219ZM7.97271 10.8409H7.11326V1.40065H9.0368C10.463 1.40065 11.5387 1.75963 12.2335 2.46789C12.9284 3.17527 13.2798 4.40392 13.2798 6.12033C13.2798 7.93817 12.8198 9.19681 11.9114 9.8592C11.02 10.5101 9.69518 10.8409 7.97271 10.8409ZM7.70758 10.2508H7.97271C9.56529 10.2508 10.7717 9.95975 11.5582 9.38468C12.3056 8.83871 12.6846 7.74059 12.6846 6.12033C12.6846 4.50006 12.3892 3.47251 11.8065 2.87891C11.2273 2.28884 10.2948 1.98984 9.03591 1.98984H7.70669V10.2508H7.70758Z" fill="currentColor"/>
</g></g>
<g transform="translate(119.3105,0)"><g>
<path d="M16.3435 9.29241C13.5232 8.58326 8.11289 8.81082 5.84237 7.73829C3.78537 6.76631 4.3788 4.30724 6.3753 3.46227C9.08979 2.31476 16.1434 2.39238 16.1567 6.6243H19.8703C19.8881 3.91827 18.2858 1.94343 15.8337 0.961745C11.6272 -0.722027 1.42052 -0.708797 0.764812 5.26335C0.0130112 12.1202 8.28816 11.2284 12.8799 11.9896C15.0357 12.3468 16.8569 12.6988 16.5304 15.3739C16.3151 17.1362 14.2252 17.7668 12.7011 18.0191C9.34513 18.5739 3.85209 18.229 3.71419 13.8039H0.000558361C-0.0368093 16.8857 1.83691 19.283 4.73023 20.2524C8.68853 21.5789 18.7511 21.6592 20.2298 16.6458C21.2325 13.2465 19.9033 10.1885 16.3427 9.29241" fill="currentColor"/>
<path d="M40.9388 15.448L37.7199 11.8529H33.5801L38.1042 17.0233C37.0971 17.3664 35.9938 17.5569 34.8372 17.5569C30.1191 17.5569 26.2809 14.4028 26.2809 10.5246C26.2809 6.64635 30.1191 3.49225 34.8372 3.49225C39.5553 3.49225 43.3944 6.64635 43.3944 10.5246C43.3944 12.4403 42.4567 14.1788 40.9397 15.448M46.8901 10.5246C46.8901 4.72708 41.494 0.0276842 34.8372 0.0276842C28.1804 0.0276842 22.7853 4.72796 22.7853 10.5246C22.7853 16.3212 28.1813 21.0215 34.8372 21.0215C36.8924 21.0215 38.8258 20.5725 40.5189 19.7831L41.3988 20.7895H45.7219L43.2547 18.0341C45.4959 16.128 46.8892 13.4688 46.8892 10.5246" fill="currentColor"/>
<path d="M53.0815 16.7269H49.0208V20.7516H53.0815V16.7269Z" fill="currentColor"/>
</g></g>
  </g>
</svg>
