<svg preserveAspectRatio="none" width="100%" height="100%" overflow="visible" style="display: block;" viewBox="0 0 537 157" fill="none" xmlns="http://www.w3.org/2000/svg">
<path id="Vector" fill-rule="evenodd" clip-rule="evenodd" d="M382.931 93.6613L388.908 57.5828L369.524 93.6613H382.931ZM223.341 53.073H216.234L211.226 70.1458H217.203C221.726 70.1458 226.733 66.4414 228.348 62.0926L228.672 61.1262C230.287 56.6164 227.864 53.073 223.341 53.073ZM212.519 90.2789H205.411L200.566 106.708H209.773C214.295 106.708 218.657 103.164 219.303 98.9764L219.464 98.01C220.11 93.8224 217.041 90.2789 212.519 90.2789ZM534.768 50.9791C524.592 34.3895 514.577 18.1219 504.401 1.53227C503.108 -0.561568 502.947 -0.561568 502.139 1.8544C500.039 8.45806 498.101 14.2564 496.001 20.86C495.355 22.6318 495.678 22.6318 493.74 22.4707C480.171 21.1822 464.988 29.3965 453.681 42.7648C452.388 44.3755 452.55 43.8923 452.227 41.9595C451.419 36.1612 450.612 30.3629 449.804 24.5645C449.481 22.9539 449.319 22.7928 447.543 22.7928H253.708C252.416 22.7928 252.416 22.9539 252.255 24.2424C252.093 25.3699 251.932 26.3362 251.77 27.4637C251.609 29.2354 251.609 28.7522 250.316 27.7858C247.247 25.2088 242.563 22.7928 227.379 22.7928H121.094C119.64 22.7928 119.801 22.7928 119.478 24.0813C119.155 25.2088 118.832 26.3362 118.348 27.4637C117.701 29.3965 117.863 29.0743 116.248 27.9469C104.456 20.3768 84.9112 19.5715 69.2429 27.4637C52.767 35.678 40.8139 53.5562 46.7904 79.3265C47.275 81.4204 47.275 81.0982 45.3367 82.0646C31.1222 88.024 16.9077 93.9834 2.69318 99.9428C-0.0528074 101.07 -0.698921 101.231 0.754835 103.647C11.5772 121.042 22.2381 138.437 32.899 156.154C33.7066 157.282 34.0297 157.282 34.5143 156.154C36.7757 149.712 39.0371 143.43 41.2985 136.988C49.5364 141.175 77.4809 140.531 95.249 123.941C100.095 133.766 111.563 139.082 124.324 139.082C135.308 139.082 146.777 136.021 156.953 128.934C156.468 130.384 155.984 131.834 155.499 133.283C154.368 136.666 154.691 136.666 158.245 136.666H199.273C214.295 136.666 228.025 134.411 238.363 126.035C240.302 124.425 240.625 123.78 240.302 127.002C240.14 129.096 239.817 130.545 239.655 132.639C239.171 136.505 239.009 136.666 243.048 136.666H353.048C356.925 136.666 356.602 136.827 358.54 133.444C360.317 130.062 362.094 126.68 364.032 123.297C364.517 122.331 364.517 121.687 365.486 121.687H366.455C367.748 121.687 367.263 122.009 367.101 123.136C366.617 126.68 365.971 130.062 365.486 133.605C365.002 136.988 365.002 136.666 368.394 136.666H466.28C470.641 136.666 473.549 134.572 473.549 128.934V117.821C473.549 114.117 471.772 111.862 467.572 111.862H457.234C454.488 111.862 454.65 112.345 455.619 109.768C460.142 98.01 467.088 86.0913 477.748 74.3335C478.879 72.8839 479.525 72.5618 479.687 72.5618C480.01 72.7229 479.202 74.3335 478.718 75.7831C477.425 80.1319 478.233 79.6487 482.271 78.038C499.716 70.7901 515.708 64.1864 533.153 57.0996C538.322 55.1668 537.675 55.489 534.768 50.9791ZM457.396 121.042H459.334L461.273 126.68L463.211 121.042H465.149V128.129H463.857V122.331L461.757 128.129H460.465L458.527 122.331V128.129H457.234V121.042H457.396ZM92.503 82.87C98.6411 92.2117 98.9641 101.07 95.4105 108.479C89.5955 120.881 73.4426 129.418 57.9359 129.579C49.5364 129.74 42.9138 128.29 35.4835 127.002C34.3528 130.706 33.0605 134.25 31.9298 137.954C25.4687 127.163 19.1691 116.371 12.7079 105.58C24.338 100.748 35.8065 95.9162 47.4366 91.0843C46.1443 95.2719 44.6906 99.4596 43.3984 103.647C48.8903 107.352 64.8816 109.285 67.6276 101.07C69.566 96.5605 65.3662 91.5674 61.1665 85.447C56.3206 78.1991 51.3132 69.3405 55.1899 57.4217C60.6819 40.671 75.381 31.0071 90.7262 30.685C98.8026 30.5239 107.364 32.7788 114.632 37.6108C111.563 44.0534 108.171 50.8181 104.941 57.2607C99.1257 53.234 87.011 49.8517 82.6498 57.9049C78.127 66.7635 88.1417 76.4274 92.503 82.87ZM125.132 130.706C104.456 130.706 97.1873 117.016 103.648 98.01C110.917 75.7831 118.024 54.2004 125.455 31.9735H151.138C143.869 53.7172 135.954 77.5548 128.847 99.2986C125.616 108.801 138.539 108.801 141.769 99.1375C148.876 77.3938 156.791 53.5562 163.899 31.8124H190.389C183.12 54.2004 176.013 75.622 168.583 98.01C162.283 117.177 145.807 130.706 125.132 130.706ZM206.865 128.612H166.645C177.305 96.3994 187.805 64.1864 198.466 31.9735H234.325C260.816 31.9735 255.647 69.1795 234.002 78.5212C260.654 97.849 236.263 128.612 206.865 128.612ZM292.475 128.612L302.652 67.4077L274.061 128.612H249.509L260.816 31.9735H284.722L274.546 92.5338L303.621 31.9735H325.104L315.089 91.8896L343.195 31.8124H368.071L316.22 128.451H292.475V128.612ZM377.116 128.612L379.862 112.506H359.51L350.787 128.612H327.688L379.701 31.9735H413.945L402.638 128.612H377.116ZM456.588 121.042V122.009H454.004V127.968H452.712V122.009H450.127V121.042H456.588ZM492.124 64.3475C493.417 60.482 494.709 56.4553 496.001 52.5898C489.863 47.5968 456.588 69.1795 439.305 128.451H412.329C417.014 114.278 421.698 99.9428 426.382 85.7691C423.636 67.7299 420.729 49.6906 417.983 31.8124H441.405C443.181 43.7312 444.797 55.65 446.573 67.5688C463.372 43.087 477.748 29.0743 502.947 31.8124C504.078 28.269 505.37 24.5645 506.5 21.0211C512.639 30.8461 518.615 40.671 524.753 50.657C513.931 55.3279 503.108 59.8377 492.124 64.3475Z" fill="var(--fill-0, white)"/>
</svg>
